<svg xmlns="http://www.w3.org/2000/svg" viewBox="0 0 64 64" width="64" height="64">
  <defs>
    <linearGradient id="skyGradient" x1="0%" y1="0%" x2="0%" y2="100%">
      <stop offset="0%" style="stop-color:#87CEEB;stop-opacity:1" />
      <stop offset="100%" style="stop-color:#4682B4;stop-opacity:1" />
    </linearGradient>
  </defs>
  
  <!-- Background -->
  <rect width="64" height="64" fill="url(#skyGradient)" rx="8"/>
  
  <!-- Sun -->
  <circle cx="18" cy="18" r="8" fill="#FFD700"/>
  <g stroke="#FFD700" stroke-width="2" stroke-linecap="round">
    <line x1="18" y1="4" x2="18" y2="8"/>
    <line x1="18" y1="28" x2="18" y2="32"/>
    <line x1="4" y1="18" x2="8" y2="18"/>
    <line x1="28" y1="18" x2="32" y2="18"/>
    <line x1="9.76" y1="9.76" x2="12.59" y2="12.59"/>
    <line x1="23.41" y1="23.41" x2="26.24" y2="26.24"/>
    <line x1="26.24" y1="9.76" x2="23.41" y2="12.59"/>
    <line x1="12.59" y1="23.41" x2="9.76" y2="26.24"/>
  </g>
  
  <!-- Cloud -->
  <ellipse cx="45" cy="35" rx="12" ry="8" fill="white" opacity="0.9"/>
  <circle cx="38" cy="35" r="6" fill="white" opacity="0.9"/>
  <circle cx="52" cy="35" r="6" fill="white" opacity="0.9"/>
  
  <!-- Raindrops -->  
  <ellipse cx="40" cy="48" rx="1.5" ry="3" fill="#4682B4"/>
  <ellipse cx="45" cy="52" rx="1.5" ry="3" fill="#4682B4"/>
  <ellipse cx="50" cy="48" rx="1.5" ry="3" fill="#4682B4"/>
</svg>
